PathFileType	4	(X/Y/Z)	OpenSim_Sub09_EMGStiffKnee_Magnet.trc
DataRate	CameraRate	NumFrames	NumMarkers	Units	OrigDataRate	OrigDataStartFrame	OrigNumFrames
100	100	13	8	m	100	5689	7584
Frame#	Time	torso_imu_offset_imu	pelvis_imu_offset_imu	tibia_r_imu_offset_imu	femur_r_imu_offset_imu	tibia_l_imu_offset_imu	femur_l_imu_offset_imu	toes_r_imu_offset_imu	toes_l_imu_offset_imu
				X1	Y1	Z1	X2	Y2	Z2	X3	Y3	Z3	X4	Y4	Z4	X5	Y5	Z5	X6	Y6	Z6	X7	Y7	Z7	X8		Y8	Z8	

5689	56.88000000	-0.89560999	-0.32316307	0.02017175	-0.60219485	0.43135422	-0.64125708	-0.61383375	-0.64225885	-0.18960123	-0.82122193	-0.24309746	-0.18132141	-0.55380239	0.55826190	0.29627942	-0.60714978	0.35841735	0.41009206	-0.62429495	-0.14121010	-0.48257370	-0.77191771	-0.14404399	-0.29580903
5690	56.89000000	-0.88821355	-0.32315214	0.01863110	-0.60440243	0.42734778	-0.64410484	-0.62865121	-0.62048924	-0.20134483	-0.82552320	-0.24550936	-0.18217193	-0.55125561	0.56513546	0.29716958	-0.60278725	0.36060401	0.40822503	-0.61208592	-0.13342689	-0.48230556	-0.78100827	-0.13990815	-0.29851383
5691	56.90000000	-0.89836771	-0.32079481	0.02416743	-0.59864294	0.43126306	-0.64205769	-0.63523691	-0.59706114	-0.20900276	-0.81936313	-0.23948873	-0.16890149	-0.55157323	0.56968273	0.29952441	-0.60295185	0.36288839	0.41718258	-0.60581532	-0.11506998	-0.49202684	-0.77731615	-0.14164813	-0.29661634
5692	56.91000000	-0.89747496	-0.32715988	0.02746478	-0.59782005	0.42744357	-0.64325741	-0.65389572	-0.57788695	-0.22089102	-0.82719233	-0.23922421	-0.16946902	-0.54800944	0.57390375	0.29932331	-0.59858049	0.36474624	0.41094831	-0.59774434	-0.10746558	-0.50502509	-0.77878866	-0.14005845	-0.29191407
5693	56.92000000	-0.89487500	-0.32329151	0.02678813	-0.59638460	0.43114967	-0.65319604	-0.66774240	-0.56130821	-0.22407800	-0.82364584	-0.23724313	-0.17469607	-0.53693052	0.58044490	0.29904599	-0.59907306	0.37123855	0.41676687	-0.59133109	-0.10355698	-0.51367648	-0.78167449	-0.13571958	-0.29365599
5694	56.93000000	-0.89299459	-0.32509392	0.03745303	-0.59171414	0.43197135	-0.65091684	-0.68088949	-0.54248412	-0.23687292	-0.82784850	-0.23708665	-0.17120996	-0.53405869	0.58526919	0.29472720	-0.59019846	0.37153711	0.41345098	-0.58409288	-0.09736041	-0.52170933	-0.77753199	-0.13122070	-0.29421876
5695	56.94000000	-0.88850912	-0.32298799	0.04039193	-0.59173615	0.42778047	-0.65809017	-0.69196091	-0.52351927	-0.25398796	-0.82178608	-0.23517612	-0.16377257	-0.53035327	0.59127604	0.29138292	-0.59264813	0.37946795	0.41230985	-0.56748302	-0.08946293	-0.53393883	-0.78115166	-0.12879094	-0.28993356
5696	56.95000000	-0.89207567	-0.32706148	0.04459446	-0.58329437	0.42735929	-0.64703544	-0.70354169	-0.50509113	-0.25719625	-0.82725864	-0.23288206	-0.16422637	-0.52572762	0.60418898	0.29340342	-0.58007575	0.38485091	0.41756923	-0.56073136	-0.07843889	-0.55017097	-0.78840381	-0.12708580	-0.28758661
5697	56.96000000	-0.89475075	-0.32568738	0.04908879	-0.58461999	0.42932887	-0.65466770	-0.70858227	-0.48194955	-0.26891426	-0.82804155	-0.23495304	-0.15080591	-0.52623948	0.61367430	0.28411088	-0.58094496	0.38662089	0.40840895	-0.55315548	-0.07783926	-0.56743202	-0.78489295	-0.12251170	-0.28516365
5698	56.97000000	-0.89464955	-0.32267192	0.05103287	-0.58526048	0.43195803	-0.65833555	-0.71901615	-0.46698657	-0.27026341	-0.82785480	-0.23343051	-0.15172075	-0.51786140	0.61818009	0.28764484	-0.58235184	0.39521459	0.41641157	-0.54061151	-0.07173291	-0.57588947	-0.78407301	-0.12241205	-0.28721828
5699	56.98000000	-0.89672331	-0.32933832	0.05792409	-0.58506400	0.42403778	-0.65777930	-0.72863391	-0.45043091	-0.27629395	-0.82800312	-0.22725124	-0.15058137	-0.51492487	0.62287730	0.28169720	-0.57523765	0.39586068	0.41303079	-0.53219626	-0.07121563	-0.59406165	-0.78874425	-0.11435923	-0.28556814
5700	56.99000000	-0.89321023	-0.32555886	0.05811178	-0.58279381	0.42135100	-0.66182680	-0.73473499	-0.43537730	-0.28890517	-0.83016032	-0.22491118	-0.14621928	-0.51151957	0.62435339	0.27615462	-0.58000332	0.40161380	0.41608296	-0.52006283	-0.06395352	-0.60366166	-0.79094295	-0.10944581	-0.28115867
5701	57	-0.88838901	-0.32542622	0.06178129	-0.58052029	0.41731607	-0.66480279	-0.74831333	-0.42134287	-0.28550899	-0.83054763	-0.21923401	-0.14168675	-0.49839106	0.63946389	0.27765799	-0.56959027	0.40652097	0.42356412	-0.50959236	-0.05280520	-0.61146482	-0.79824379	-0.10688571	-0.27682478
